<svg width="100" height="100" viewBox="0 0 100 100" fill="none" xmlns="http://www.w3.org/2000/svg">
<path fill-rule="evenodd" clip-rule="evenodd" d="M4.16669 11.825C4.16669 9.79385 4.97355 7.84593 6.40976 6.40971C7.84598 4.97349 9.7939 4.16664 11.825 4.16664H88.1667C89.1732 4.16499 90.1702 4.3619 91.1006 4.74608C92.031 5.13026 92.8764 5.69418 93.5885 6.40554C94.3007 7.1169 94.8655 7.96173 95.2507 8.89168C95.6359 9.82162 95.8339 10.8184 95.8333 11.825V88.1666C95.8344 89.1734 95.637 90.1705 95.2524 91.1009C94.8677 92.0312 94.3034 92.8767 93.5917 93.5887C92.8801 94.3008 92.0349 94.8656 91.1048 95.2507C90.1746 95.6359 89.1776 95.8338 88.1708 95.8333H11.825C10.819 95.8333 9.82276 95.6351 8.89334 95.2499C7.96392 94.8648 7.11948 94.3003 6.40829 93.5887C5.69709 92.8772 5.13307 92.0324 4.74845 91.1028C4.36383 90.1732 4.16614 89.1768 4.16669 88.1708V11.825ZM40.45 39.1166H52.8625V45.35C54.6542 41.7666 59.2375 38.5416 66.125 38.5416C79.3292 38.5416 82.4583 45.6791 82.4583 58.775V83.0333H69.0958V61.7583C69.0958 54.3 67.3042 50.0916 62.7542 50.0916C56.4417 50.0916 53.8167 54.6291 53.8167 61.7583V83.0333H40.45V39.1166ZM17.5334 82.4625H30.9V38.5416H17.5334V82.4583V82.4625ZM32.8125 24.2166C32.8377 25.3611 32.6341 26.4991 32.2135 27.5638C31.793 28.6285 31.164 29.5984 30.3635 30.4168C29.563 31.2351 28.6071 31.8853 27.5519 32.3292C26.4967 32.773 25.3635 33.0017 24.2188 33.0017C23.074 33.0017 21.9408 32.773 20.8856 32.3292C19.8304 31.8853 18.8746 31.2351 18.0741 30.4168C17.2736 29.5984 16.6446 28.6285 16.224 27.5638C15.8035 26.4991 15.5998 25.3611 15.625 24.2166C15.6745 21.9702 16.6016 19.8324 18.2079 18.2612C19.8141 16.6899 21.9718 15.81 24.2188 15.81C26.4658 15.81 28.6234 16.6899 30.2297 18.2612C31.8359 19.8324 32.7631 21.9702 32.8125 24.2166V24.2166Z" fill="#267CFF"/>
</svg>
