<svg width="100" height="98" viewBox="0 0 100 98" fill="none" xmlns="http://www.w3.org/2000/svg">
<path d="M50 0.237549C22.375 0.237549 0 22.625 0 50.2375C0 72.3334 14.325 91.0709 34.1875 97.675C36.6875 98.1459 37.6042 96.6 37.6042 95.2709C37.6042 94.0834 37.5625 90.9375 37.5417 86.7709C23.6333 89.7875 20.7 80.0625 20.7 80.0625C18.425 74.2917 15.1375 72.75 15.1375 72.75C10.6083 69.65 15.4875 69.7125 15.4875 69.7125C20.5083 70.0625 23.1458 74.8625 23.1458 74.8625C27.6042 82.5084 34.85 80.3 37.7083 79.0209C38.1583 75.7875 39.4458 73.5834 40.875 72.3334C29.7708 71.0834 18.1 66.7834 18.1 47.625C18.1 42.1667 20.0375 37.7084 23.2458 34.2084C22.6833 32.9459 20.9958 27.8625 23.6833 20.975C23.6833 20.975 27.8708 19.6334 37.4333 26.1C41.4333 24.9875 45.6833 24.4375 49.9333 24.4125C54.1833 24.4375 58.4333 24.9875 62.4333 26.1C71.9333 19.6334 76.1208 20.975 76.1208 20.975C78.8083 27.8625 77.1208 32.9459 76.6208 34.2084C79.8083 37.7084 81.7458 42.1667 81.7458 47.625C81.7458 66.8334 70.0583 71.0625 58.9333 72.2917C60.6833 73.7917 62.3083 76.8584 62.3083 81.5417C62.3083 88.2334 62.2458 93.6084 62.2458 95.2334C62.2458 96.5459 63.1208 98.1084 65.6833 97.6084C85.6875 91.05 100 72.3 100 50.2375C100 22.625 77.6125 0.237549 50 0.237549" fill="black"/>
</svg>
