<svg width="80" height="80" viewBox="0 0 80 80" fill="none" xmlns="http://www.w3.org/2000/svg">
<path d="M52.39 8.23498C52.4865 7.92112 52.5203 7.59132 52.4893 7.26442C52.4584 6.93751 52.3634 6.6199 52.2097 6.32972C52.056 6.03953 51.8467 5.78246 51.5937 5.57318C51.3406 5.36389 51.0489 5.2065 50.735 5.10998C50.4211 5.01346 50.0913 4.9797 49.7644 5.01063C49.4375 5.04157 49.1199 5.13659 48.8297 5.29027C48.5396 5.44395 48.2825 5.65328 48.0732 5.90631C47.8639 6.15934 47.7065 6.45112 47.61 6.76498L27.61 71.765C27.4151 72.3988 27.4799 73.0842 27.7903 73.6702C28.1007 74.2563 28.6311 74.695 29.265 74.89C29.8989 75.0849 30.5842 75.0201 31.1703 74.7097C31.7563 74.3993 32.1951 73.8688 32.39 73.235L52.39 8.23498V8.23498ZM24.27 20.73C24.5028 20.9622 24.6875 21.2381 24.8136 21.5418C24.9396 21.8455 25.0045 22.1711 25.0045 22.5C25.0045 22.8288 24.9396 23.1544 24.8136 23.4581C24.6875 23.7619 24.5028 24.0377 24.27 24.27L8.535 40L24.27 55.73C24.7394 56.1994 25.0032 56.8361 25.0032 57.5C25.0032 58.1639 24.7394 58.8005 24.27 59.27C23.8006 59.7394 23.1639 60.0031 22.5 60.0031C21.8361 60.0031 21.1994 59.7394 20.73 59.27L3.23 41.77C2.99718 41.5377 2.81247 41.2619 2.68644 40.9581C2.5604 40.6544 2.49553 40.3288 2.49553 40C2.49553 39.6711 2.5604 39.3455 2.68644 39.0418C2.81247 38.7381 2.99718 38.4622 3.23 38.23L20.73 20.73C20.9622 20.4972 21.2381 20.3124 21.5418 20.1864C21.8456 20.0604 22.1712 19.9955 22.5 19.9955C22.8288 19.9955 23.1544 20.0604 23.4582 20.1864C23.7619 20.3124 24.0378 20.4972 24.27 20.73V20.73ZM55.73 20.73C55.4972 20.9622 55.3125 21.2381 55.1864 21.5418C55.0604 21.8455 54.9955 22.1711 54.9955 22.5C54.9955 22.8288 55.0604 23.1544 55.1864 23.4581C55.3125 23.7619 55.4972 24.0377 55.73 24.27L71.465 40L55.73 55.73C55.4976 55.9624 55.3132 56.2384 55.1874 56.5421C55.0616 56.8458 54.9968 57.1713 54.9968 57.5C54.9968 57.8287 55.0616 58.1542 55.1874 58.4579C55.3132 58.7616 55.4976 59.0375 55.73 59.27C55.9624 59.5024 56.2384 59.6868 56.5421 59.8126C56.8458 59.9384 57.1713 60.0031 57.5 60.0031C57.8287 60.0031 58.1542 59.9384 58.4579 59.8126C58.7616 59.6868 59.0376 59.5024 59.27 59.27L76.77 41.77C77.0028 41.5377 77.1875 41.2619 77.3136 40.9581C77.4396 40.6544 77.5045 40.3288 77.5045 40C77.5045 39.6711 77.4396 39.3455 77.3136 39.0418C77.1875 38.7381 77.0028 38.4622 76.77 38.23L59.27 20.73C59.0378 20.4972 58.7619 20.3124 58.4582 20.1864C58.1544 20.0604 57.8288 19.9955 57.5 19.9955C57.1712 19.9955 56.8456 20.0604 56.5418 20.1864C56.2381 20.3124 55.9622 20.4972 55.73 20.73V20.73Z" fill="#006216"/>
</svg>
