<svg width="81" height="81" viewBox="0 0 81 81" fill="none" xmlns="http://www.w3.org/2000/svg">
<path d="M17.1039 38.1328L38.132 17.1078L31.2383 10.2141L21.6008 19.8516C21.4859 19.9667 21.3494 20.0581 21.1991 20.1204C21.0488 20.1827 20.8877 20.2148 20.725 20.2148C20.5623 20.2148 20.4012 20.1827 20.2509 20.1204C20.1007 20.0581 19.9642 19.9667 19.8492 19.8516L18.0977 18.1C17.6133 17.6156 17.6133 16.8313 18.0977 16.3484L27.7352 6.71094L22.4789 1.45312C20.543 -0.482813 17.4055 -0.482813 15.4695 1.45312L1.45235 15.4703C-0.482022 17.4063 -0.483585 20.5437 1.45235 22.4797L17.1039 38.1328V38.1328ZM77.8024 19.8828C80.7336 16.9516 80.732 12.2 77.8024 9.26875L70.732 2.19844C67.8008 -0.732813 63.0477 -0.732813 60.1149 2.19844L52.9242 9.3875L70.6117 27.075L77.8024 19.8828V19.8828ZM49.3883 12.925L2.98204 59.325L0.0507905 76.1125C-0.344522 78.3766 1.62735 80.3484 3.89298 79.95L20.682 77.0062L67.0758 30.6109L49.3883 12.925ZM78.5492 57.5234L73.293 52.2672L63.6555 61.9047C63.1711 62.3891 62.3867 62.3891 61.9039 61.9047L60.1524 60.1531C59.6695 59.6688 59.6695 58.8844 60.1524 58.4016L69.7899 48.7641L62.893 41.8672L41.8649 62.8922L57.5227 78.5484C59.4586 80.4844 62.5961 80.4844 64.532 78.5484L78.5492 64.5328C80.4852 62.5969 80.4852 59.4594 78.5492 57.5234Z" fill="#FF603E"/>
</svg>
