<svg width="80" height="80" viewBox="0 0 80 80" fill="none" xmlns="http://www.w3.org/2000/svg">
<path d="M76.6667 36.6667H73.1667C72.3875 29.0199 68.994 21.8761 63.559 16.441C58.1239 11.006 50.9801 7.61248 43.3333 6.83333V0H36.6667V6.83333C29.0199 7.61248 21.8761 11.006 16.441 16.441C11.006 21.8761 7.61248 29.0199 6.83333 36.6667H0V43.3333H6.83333C7.61248 50.9801 11.006 58.1239 16.441 63.559C21.8761 68.994 29.0199 72.3875 36.6667 73.1667V80H43.3333V73.1667C50.9801 72.3875 58.1239 68.994 63.559 63.559C68.994 58.1239 72.3875 50.9801 73.1667 43.3333H80V36.6667H76.6667ZM45.7433 36.6667C45.163 35.6676 44.3324 34.837 43.3333 34.2567V26.27C45.852 26.8851 48.1535 28.1798 49.9868 30.0132C51.8202 31.8465 53.1149 34.148 53.73 36.6667H45.7433ZM53.73 43.3333C53.1149 45.852 51.8202 48.1535 49.9868 49.9868C48.1535 51.8202 45.852 53.1149 43.3333 53.73V45.7433C44.3324 45.163 45.163 44.3324 45.7433 43.3333H53.73ZM36.6667 13.5667V21.1433C32.8021 21.8324 29.2418 23.6902 26.466 26.466C23.6902 29.2418 21.8324 32.8021 21.1433 36.6667H13.5633C14.3113 30.8009 16.9861 25.3497 21.1676 21.1687C25.3492 16.9878 30.8008 14.3138 36.6667 13.5667V13.5667ZM34.2567 36.6667H26.27C26.8854 34.1481 28.1803 31.8468 30.0136 30.0136C31.8468 28.1803 34.1481 26.8854 36.6667 26.27V34.2567C35.6676 34.837 34.837 35.6676 34.2567 36.6667V36.6667ZM36.6667 45.7433V53.73C34.148 53.1149 31.8465 51.8202 30.0132 49.9868C28.1798 48.1535 26.8851 45.852 26.27 43.3333H34.2567C34.837 44.3324 35.6676 45.163 36.6667 45.7433V45.7433ZM13.5667 43.3333H21.1433C21.8324 47.1979 23.6902 50.7582 26.466 53.534C29.2418 56.3098 32.8021 58.1676 36.6667 58.8567V66.4367C30.8009 65.6887 25.3497 63.0139 21.1687 58.8324C16.9878 54.6508 14.3138 49.1992 13.5667 43.3333V43.3333ZM43.3333 66.4333V58.8567C47.1979 58.1676 50.7582 56.3098 53.534 53.534C56.3098 50.7582 58.1676 47.1979 58.8567 43.3333H66.4367C65.6887 49.1991 63.0139 54.6503 58.8324 58.8313C54.6508 63.0123 49.1992 65.6862 43.3333 66.4333V66.4333ZM58.8567 36.6667C58.1676 32.8021 56.3098 29.2418 53.534 26.466C50.7582 23.6902 47.1979 21.8324 43.3333 21.1433V13.5633C49.1991 14.3113 54.6503 16.9861 58.8313 21.1676C63.0123 25.3492 65.6862 30.8008 66.4333 36.6667H58.8567Z" fill="#267CFF"/>
</svg>
