<svg width="100" height="100" viewBox="0 0 100 100" fill="none" xmlns="http://www.w3.org/2000/svg">
<path d="M20.3125 9.375V90.625C20.3144 92.282 20.9734 93.8707 22.1451 95.0424C23.3168 96.2141 24.9055 96.8731 26.5625 96.875H75C76.657 96.8731 78.2457 96.2141 79.4174 95.0424C80.5891 93.8707 81.2481 92.282 81.25 90.625V9.375C81.2481 7.71797 80.5891 6.12934 79.4174 4.95764C78.2457 3.78594 76.657 3.12686 75 3.125H26.5625C24.9055 3.12686 23.3168 3.78594 22.1451 4.95764C20.9734 6.12934 20.3144 7.71797 20.3125 9.375V9.375ZM75.0041 90.625H26.5625V9.375H75L75.0041 90.625Z" fill="#2E2E2E"/>
<path d="M42.1875 15.625H60.9375V21.875H42.1875V15.625ZM48.4375 76.5625H54.6875V82.8125H48.4375V76.5625Z" fill="#2E2E2E"/>
</svg>
