<svg width="150" height="150" viewBox="0 0 150 150" fill="none" xmlns="http://www.w3.org/2000/svg">
<g clip-path="url(#clip0_154_7)">
<path d="M147.162 68.3125L81.6688 2.82501C77.8938 -0.943744 71.7812 -0.943744 67.9937 2.82501L54.425 16.4188L71.675 33.6688C75.7063 32.325 80.2938 33.2313 83.4813 36.425C86.7063 39.6438 87.5938 44.2875 86.2188 48.3L102.831 64.925C106.862 63.5313 111.5 64.4375 114.706 67.6438C119.213 72.1438 119.213 79.4188 114.706 83.9188C110.213 88.4125 102.95 88.4125 98.4563 83.9188C95.0875 80.5375 94.2437 75.5625 95.9312 71.4438L80.375 55.9688V96.75C81.475 97.2875 82.5125 98.0188 83.425 98.925C87.8812 103.431 87.8812 110.694 83.425 115.175C78.9312 119.681 71.6188 119.681 67.1188 115.175C62.625 110.681 62.625 103.431 67.1188 98.9375C68.2563 97.8125 69.5375 96.9625 70.9 96.4V55.2188C69.5437 54.65 68.25 53.8313 67.15 52.7125C63.7438 49.3063 62.925 44.325 64.675 40.1563L47.725 23.125L2.8125 68.0063C-0.9375 71.7875 -0.9375 77.9063 2.8125 81.6875L68.3125 147.169C72.0875 150.944 78.2 150.944 81.975 147.169L147.162 81.9813C150.944 78.2125 150.944 72.0938 147.162 68.3125Z" fill="#D45900"/>
</g>
<defs>
<clipPath id="clip0_154_7">
<rect width="150" height="150" fill="white"/>
</clipPath>
</defs>
</svg>
