<svg width="150" height="150" viewBox="0 0 150 150" fill="none" xmlns="http://www.w3.org/2000/svg">
<path d="M75 1.85626C33.5625 1.85626 0 35.4375 0 76.8563C0 110 21.4875 138.106 51.2812 148.013C55.0312 148.719 56.4062 146.4 56.4062 144.406C56.4062 142.625 56.3438 137.906 56.3125 131.656C35.45 136.181 31.05 121.594 31.05 121.594C27.6375 112.938 22.7062 110.625 22.7062 110.625C15.9125 105.975 23.2313 106.069 23.2313 106.069C30.7625 106.594 34.7187 113.794 34.7187 113.794C41.4062 125.263 52.275 121.95 56.5625 120.031C57.2375 115.181 59.1688 111.875 61.3125 110C44.6563 108.125 27.15 101.675 27.15 72.9375C27.15 64.75 30.0563 58.0625 34.8687 52.8125C34.025 50.9188 31.4938 43.2938 35.525 32.9625C35.525 32.9625 41.8063 30.95 56.15 40.65C62.15 38.9813 68.525 38.1563 74.9 38.1188C81.275 38.1563 87.65 38.9813 93.65 40.65C107.9 30.95 114.181 32.9625 114.181 32.9625C118.212 43.2938 115.681 50.9188 114.931 52.8125C119.712 58.0625 122.619 64.75 122.619 72.9375C122.619 101.75 105.088 108.094 88.4 109.938C91.025 112.188 93.4625 116.788 93.4625 123.813C93.4625 133.85 93.3688 141.913 93.3688 144.35C93.3688 146.319 94.6812 148.663 98.525 147.913C128.531 138.075 150 109.95 150 76.8563C150 35.4375 116.419 1.85626 75 1.85626" fill="black"/>
</svg>
