<svg width="150" height="150" viewBox="0 0 150 150" fill="none" xmlns="http://www.w3.org/2000/svg">
<rect width="150" height="150" fill="black"/>
<path d="M0 0H150V150H0V0ZM137.713 114.225C136.619 107.381 132.163 101.631 118.944 96.2687C114.344 94.1125 109.231 92.6125 107.712 89.1437C107.144 87.0812 107.056 85.9562 107.425 84.7375C108.362 80.7 113.144 79.4875 116.894 80.6125C119.331 81.3625 121.581 83.2375 122.994 86.2375C129.456 82.0125 129.456 82.0125 133.963 79.2063C132.275 76.5813 131.437 75.45 130.3 74.3312C126.362 69.925 121.119 67.675 112.587 67.8688L108.181 68.425C103.956 69.4562 99.9312 71.7063 97.4937 74.7063C90.3687 82.775 92.425 96.8375 101.05 102.65C109.581 109.025 122.056 110.425 123.65 116.431C125.15 123.744 118.213 126.087 111.363 125.244C106.294 124.119 103.487 121.581 100.394 116.894L88.9562 123.462C90.2687 126.462 91.7688 127.769 94.0188 130.394C104.894 141.369 132.081 140.806 136.962 124.119C137.144 123.556 138.463 119.712 137.425 113.806L137.713 114.225ZM81.5687 68.9438H67.5188C67.5188 81.0563 67.4625 93.0938 67.4625 105.225C67.4625 112.925 67.8563 119.994 66.6 122.169C64.5375 126.475 59.225 125.925 56.8125 125.169C54.3375 123.944 53.0813 122.256 51.625 119.825C51.2313 119.169 50.9375 118.6 50.8313 118.6L39.425 125.631C41.3313 129.569 44.1125 132.956 47.7 135.113C53.0437 138.3 60.225 139.331 67.7437 137.644C72.6375 136.231 76.8562 133.325 79.0625 128.825C82.25 123.012 81.575 115.888 81.5437 107.913C81.6187 95.075 81.5437 82.2312 81.5437 69.2937L81.5687 68.9438Z" fill="#FAFF00"/>
</svg>
